<svg xmlns="http://www.w3.org/2000/svg" width="29.486" height="20.732" viewBox="0 0 29.486 20.732"><path d="M29.919,7.744A3.7,3.7,0,0,0,27.313,5.12c-2.3-.62-11.52-.62-11.52-.62s-9.22,0-11.52.62A3.7,3.7,0,0,0,1.666,7.744a38.866,38.866,0,0,0-.616,7.143,38.866,38.866,0,0,0,.616,7.143,3.65,3.65,0,0,0,2.607,2.582c2.3.62,11.52.62,11.52.62s9.22,0,11.52-.62a3.65,3.65,0,0,0,2.607-2.582,38.866,38.866,0,0,0,.616-7.143,38.866,38.866,0,0,0-.616-7.143ZM12.777,19.271V10.5l7.706,4.384-7.706,4.384Z" transform="translate(-1.05 -4.5)" fill="#fff"/></svg>