<svg xmlns="http://www.w3.org/2000/svg" width="24.201" height="24.195" viewBox="0 0 24.201 24.195"><path d="M12.1,8.132a6.2,6.2,0,1,0,6.2,6.2A6.194,6.194,0,0,0,12.1,8.132Zm0,10.236a4.033,4.033,0,1,1,4.033-4.033A4.04,4.04,0,0,1,12.1,18.368ZM20,7.878a1.447,1.447,0,1,1-1.447-1.447A1.444,1.444,0,0,1,20,7.878Zm4.109,1.469a7.16,7.16,0,0,0-1.954-5.07,7.208,7.208,0,0,0-5.07-1.954c-2-.113-7.985-.113-9.983,0a7.2,7.2,0,0,0-5.07,1.949A7.184,7.184,0,0,0,.08,9.341c-.113,2-.113,7.985,0,9.983a7.16,7.16,0,0,0,1.954,5.07A7.217,7.217,0,0,0,7.1,26.348c2,.113,7.985.113,9.983,0a7.16,7.16,0,0,0,5.07-1.954,7.208,7.208,0,0,0,1.954-5.07c.113-2,.113-7.98,0-9.977ZM21.53,21.467a4.083,4.083,0,0,1-2.3,2.3c-1.593.632-5.372.486-7.132.486s-5.545.14-7.132-.486a4.083,4.083,0,0,1-2.3-2.3c-.632-1.593-.486-5.372-.486-7.132S2.04,8.791,2.666,7.2a4.083,4.083,0,0,1,2.3-2.3c1.593-.632,5.372-.486,7.132-.486s5.545-.14,7.132.486a4.083,4.083,0,0,1,2.3,2.3c.632,1.593.486,5.372.486,7.132S22.162,19.88,21.53,21.467Z" transform="translate(0.005 -2.238)" fill="#fff"/></svg>